<svg xmlns="http://www.w3.org/2000/svg" width="1308" height="337" fill="none"><path fill="#00353D" d="M376.083 216.051V62.779L352 41.755v-.74h106.288v.755l-23.705 21.025v149.828c0 42.048 20.26 61.154 53.906 61.154 32.876 0 53.483-21.024 53.483-60.777V91.823c0-17.187 0-16.81-34.418-50.068l.378-.755H579v.755L551.866 75.39v138.38c0 54.66-27.15 85.229-82.976 85.229-63.817-.016-92.807-32.504-92.807-82.949ZM685.531 294h-98.404v-.777l20.98-18.891V144.535L583 126.04l.377-.76L663.405 101l-.753 43.155c14.876-23.123 35.84-40.841 64.446-40.841 38.147 0 54.922 21.569 54.922 67.022v103.996L803 293.208v.776h-98.404v-.776l20.98-18.876v-96.674c0-33.123-9.917-43.916-30.505-43.916a41.663 41.663 0 0 0-16.504 3.025 41.989 41.989 0 0 0-14.016 9.305v128.26l20.98 18.876V294ZM821 202.994C821 139.556 857.025 104 918.748 104c61.723 0 91.252 31.798 91.252 95.629 0 62.29-35.268 99.371-97.338 99.371-61.77 0-91.662-32.112-91.662-96.006Zm93.885 88.3c20.307 0 37.176-25.994 37.176-90.203 0-63.831-14.946-89.826-35.647-89.826-20.7 0-37.554 26.372-37.554 89.826 0 64.665 15.325 90.266 36.025 90.266v-.063ZM1206.21 296.937l-44.6-134.495-43.92 131.133-24.01 3.425-62.51-167.337-15.17-18.955v-.75h101.02v.75l-24.4 19.002 33.54 109.473 43.09-129.225 25.91-4.958 44.6 135.324 28.97-86.28c4.2-12.167 4.2-12.167-27.06-43.336v-.75H1308v.75l-25.5 31.513-52.61 151.698-23.68 3.018ZM335.381 336.391H0V.543h335.381v335.848Z"/><path fill="#fff" d="M168.844 299.446a129.156 129.156 0 0 1-91.27-37.851 129.432 129.432 0 0 1-37.887-91.335 7.758 7.758 0 0 1 2.32-4.862 7.158 7.158 0 0 1 5.089-1.97 7.077 7.077 0 0 1 4.98 1.97 7.24 7.24 0 0 1 2.32 4.862 113.76 113.76 0 0 0 19.32 63.486 114.498 114.498 0 0 0 51.326 42.152 114.366 114.366 0 0 0 66.065 6.547 114.444 114.444 0 0 0 58.585-31.26 114.638 114.638 0 0 0 31.402-58.554 114.281 114.281 0 0 0-6.486-66.077 114.15 114.15 0 0 0-42.115-51.292 114.999 114.999 0 0 0-63.541-19.22 7.404 7.404 0 0 1-5.238-2.172 7.422 7.422 0 0 1 0-10.488 7.404 7.404 0 0 1 5.238-2.172 128.926 128.926 0 0 1 89.985 38.51 129.201 129.201 0 0 1 37.085 90.662 129.203 129.203 0 0 1-37.161 90.63 128.927 128.927 0 0 1-90.017 38.434Z"/><path fill="#80E5CD" d="M168.613 259.01a88.548 88.548 0 0 1-49.282-14.848 88.683 88.683 0 0 1-32.728-39.763 88.795 88.795 0 0 1-5.133-51.264 88.742 88.742 0 0 1 24.193-45.474 88.589 88.589 0 0 1 45.359-24.344 88.528 88.528 0 0 1 51.224 4.996 88.634 88.634 0 0 1 39.81 32.653 88.774 88.774 0 0 1 14.968 49.294 7.42 7.42 0 0 1-2.169 5.244 7.405 7.405 0 0 1-12.647-5.244 74.07 74.07 0 0 0-12.491-41.11 73.947 73.947 0 0 0-33.201-27.235 73.86 73.86 0 0 0-42.721-4.18 73.911 73.911 0 0 0-37.84 20.286A74.02 74.02 0 0 0 95.7 155.893a74.072 74.072 0 0 0 4.176 42.755 73.775 73.775 0 0 0 27.233 33.155 73.664 73.664 0 0 0 41.057 12.375 7.362 7.362 0 0 1 6.852 4.56 7.384 7.384 0 0 1-1.642 8.072 5.716 5.716 0 0 1-4.763 2.2Z"/><path fill="#FFEB66" d="M168.383 218.466a47.998 47.998 0 0 1-33.932-14.166 48.096 48.096 0 0 1-13.978-34.04 7.715 7.715 0 0 1 2.076-5.202 7.264 7.264 0 0 1 10.42 0 7.238 7.238 0 0 1 2.076 5.202 34.459 34.459 0 0 0 5.563 18.663 33.772 33.772 0 0 0 14.925 12.388 33.142 33.142 0 0 0 19.213 1.969 33.388 33.388 0 0 0 17.122-9.156 33.44 33.44 0 0 0 9.146-17.14 34.535 34.535 0 0 0-1.845-19.342 34.115 34.115 0 0 0-12.211-15.063 32.938 32.938 0 0 0-18.521-5.678 7.369 7.369 0 0 1-5.21-2.201 7.268 7.268 0 0 1-2.09-5.215 7.804 7.804 0 0 1 2.09-5.216 7.378 7.378 0 0 1 5.21-2.201 47.466 47.466 0 0 1 32.862 14.602 48.436 48.436 0 0 1 13.543 33.597 48.436 48.436 0 0 1-13.543 33.597 47.02 47.02 0 0 1-32.916 14.602Z"/></svg>