<svg xmlns="http://www.w3.org/2000/svg" width="169" height="25" viewBox="0 0 169 25" fill="none"><path d="M0.555542 24.2646L11.6737 0.278503H17.6013L28.6736 24.2646H22.9926L21.1946 20.2019H8.07759L6.27952 24.2646H0.555542ZM19.3965 16.134L14.6561 5.31499L9.87565 16.134H19.3994H19.3965Z" fill="black"></path><path d="M49.2724 4.30929C48.7533 4.30929 48.4006 4.40353 48.2085 4.58939C48.0163 4.77525 47.9217 5.10508 47.9217 5.57888V7.48196H52.4986V11.5132H47.9217V24.2694H42.6508V11.508H35.5389V24.2641H30.268V11.508H28.1V7.47673H30.268V5.57365C30.268 3.43497 30.7354 2.01617 31.676 1.31986C32.6166 0.623547 34.3545 0.275391 36.8867 0.275391H40.1158V4.30929H36.8867C36.3676 4.30929 36.0149 4.40353 35.8256 4.58939C35.6364 4.77525 35.5389 5.10508 35.5389 5.57888V7.48196H42.6508V5.57888C42.6508 3.44021 43.1211 2.02141 44.0589 1.3251C44.9995 0.628782 46.7373 0.280626 49.2724 0.280626H52.4986V4.30929H49.2724Z" fill="black"></path><path d="M55.7708 9.52905C57.5143 7.91392 59.9118 7.10504 62.963 7.10504C66.0143 7.10504 68.297 7.90606 69.9717 9.51072C71.6494 11.1154 72.4867 13.2488 72.4867 15.9084C72.4867 16.356 72.4581 16.8168 72.4036 17.2906H58.303C58.4119 18.3848 58.9081 19.2539 59.7942 19.9004C60.6774 20.547 61.7643 20.869 63.0433 20.869C63.6427 20.869 64.1789 20.8088 64.6578 20.6831C65.1339 20.5601 65.501 20.4161 65.7591 20.2564C66.0171 20.0941 66.2351 19.9266 66.4129 19.7512C66.5907 19.5785 66.7054 19.4266 66.7599 19.3036L66.8431 19.1177H72.1139C72.0881 19.2696 72.025 19.4659 71.9304 19.7146C71.8358 19.9659 71.5777 20.4057 71.1561 21.0391C70.7317 21.6726 70.2212 22.2354 69.6219 22.7197C69.0225 23.204 68.1364 23.6464 66.9664 24.0443C65.7935 24.4422 64.4714 24.6411 63.0003 24.6411C60.058 24.6411 57.6807 23.8506 55.8711 22.2721C54.0587 20.6936 53.1525 18.5733 53.1525 15.9137C53.1525 13.2541 54.0243 11.1756 55.7679 9.53428M67.3736 14.0865V13.9739C67.3736 13.0289 66.9664 12.2776 66.1491 11.7175C65.3318 11.1573 64.2822 10.8772 63.0003 10.8772C61.7184 10.8772 60.6258 11.173 59.7913 11.7698C58.9625 12.3667 58.4636 13.1389 58.3001 14.0839H67.3736V14.0865Z" fill="black"></path><path d="M76.7796 9.45575C78.549 7.89036 81.0152 7.10504 84.1755 7.10504C85.8359 7.10504 87.3013 7.30922 88.5688 7.7202C89.8364 8.13119 90.7684 8.62855 91.3677 9.2123C91.9671 9.79605 92.4575 10.3903 92.8389 10.9845C93.2203 11.584 93.4382 12.0787 93.4927 12.4792L93.616 13.1127H88.2591C88.2333 13.063 88.2046 12.9844 88.1788 12.8719C88.1501 12.7593 88.0354 12.5813 87.8318 12.33C87.6282 12.0813 87.3959 11.8562 87.135 11.6572C86.8769 11.4583 86.4811 11.2803 85.9506 11.118C85.4201 10.9557 84.8264 10.8746 84.1726 10.8746C82.6212 10.8746 81.4425 11.296 80.6367 12.1415C79.8337 12.987 79.4294 14.1807 79.4294 15.7226C79.4294 17.2644 79.8395 18.5392 80.6568 19.4711C81.4741 20.403 82.6441 20.869 84.1697 20.869C85.205 20.869 86.0624 20.6282 86.745 20.1413C87.4275 19.657 87.849 19.1675 88.0125 18.6701L88.2562 17.9607H93.5701C93.5415 18.1361 93.5013 18.3717 93.4468 18.6701C93.3923 18.9685 93.1687 19.5025 92.7729 20.2748C92.3772 21.0444 91.8811 21.7224 91.2817 22.3087C90.6823 22.8925 89.7561 23.4265 88.5029 23.9134C87.2497 24.3977 85.8072 24.6411 84.1726 24.6411C80.9866 24.6411 78.506 23.8453 76.7337 22.2538C74.9615 20.6622 74.0782 18.4843 74.0782 15.7252C74.0782 13.1389 74.9787 11.0499 76.7767 9.45837" fill="black"></path><path d="M94.5137 7.47934H96.8853V2.55542H102.159V7.47934H106.572V11.5106H102.199V18.9711C102.199 19.4423 102.297 19.7721 102.486 19.958C102.675 20.1439 103.016 20.2381 103.507 20.2381H106.572V24.2668H103.507C100.975 24.2668 99.2368 23.9212 98.2962 23.2223C97.3556 22.526 96.8853 21.1098 96.8853 18.9711V11.5106H94.5137V7.47934Z" fill="black"></path><path d="M108.981 3.22556C108.981 2.40359 109.288 1.70728 109.902 1.134C110.516 0.563339 111.255 0.275391 112.127 0.275391C112.999 0.275391 113.788 0.560722 114.416 1.134C115.041 1.70728 115.353 2.40098 115.353 3.22556C115.353 4.05014 115.041 4.69933 114.416 5.25952C113.788 5.81971 113.025 6.09981 112.127 6.09981C111.284 6.09981 110.547 5.81448 109.922 5.2412C109.294 4.66792 108.981 3.99778 108.981 3.22817M114.786 24.2668H109.555V7.47934H114.786V24.2641V24.2668Z" fill="black"></path><path d="M122.184 7.47931L127.495 19.2302L132.849 7.47931H138.367L130.111 24.2641H124.88L116.667 7.47931H122.184Z" fill="black"></path><path d="M140.205 9.52905C141.949 7.91392 144.346 7.10504 147.4 7.10504C150.454 7.10504 152.734 7.90606 154.409 9.51072C156.087 11.1154 156.924 13.2488 156.924 15.9084C156.924 16.356 156.895 16.8168 156.844 17.2906H142.743C142.852 18.3848 143.348 19.2539 144.231 19.9004C145.118 20.547 146.202 20.869 147.481 20.869C148.08 20.869 148.619 20.8088 149.095 20.6831C149.571 20.5601 149.941 20.4161 150.199 20.2564C150.457 20.0941 150.675 19.9266 150.853 19.7512C151.031 19.5785 151.146 19.4266 151.2 19.3036L151.283 19.1177H156.554C156.528 19.2696 156.468 19.4659 156.371 19.7146C156.276 19.9659 156.018 20.4057 155.596 21.0391C155.172 21.6726 154.664 22.2354 154.065 22.7197C153.466 23.204 152.579 23.6464 151.409 24.0443C150.236 24.4422 148.914 24.6411 147.443 24.6411C144.501 24.6411 142.124 23.8506 140.311 22.2721C138.499 20.6936 137.593 18.5733 137.593 15.9137C137.593 13.2541 138.464 11.1756 140.208 9.53428M151.817 14.0865V13.9739C151.817 13.0289 151.409 12.2776 150.592 11.7175C149.775 11.1573 148.722 10.8772 147.443 10.8772C146.164 10.8772 145.066 11.173 144.234 11.7698C143.406 12.3667 142.907 13.1389 142.746 14.0839H151.819L151.817 14.0865Z" fill="black"></path><path d="M165.51 3.13913V0.683716H162.82V3.13913H160.13V5.59455H162.82V8.04997H165.51V5.59455H168.2V3.13913H165.51Z" fill="black"></path></svg>