<?xml version="1.0" encoding="UTF-8"?>
<svg xmlns="http://www.w3.org/2000/svg" xmlns:xlink="http://www.w3.org/1999/xlink" width="160.13" height="24" viewBox="0 0 160.13 24">
  <defs>
    <clipPath id="a">
      <rect width="160.13" height="24" fill="#202b52"></rect>
    </clipPath>
  </defs>
  <g clip-path="url(#a)">
    <path d="M549.005,60.718a4.032,4.032,0,1,1-4.033-4.033,4.032,4.032,0,0,1,4.033,4.033" transform="translate(-388.875 -40.75)" fill="#e7334e"></path>
    <path d="M4.869,18.587l3.642-11.6,3.6,11.6Zm15.694,6.191c-.082-.165-.655-1.693-.916-2.436v-.006L13.5,5.439q-.783-2.521-2.185-2.521H5.022v.34A3.006,3.006,0,0,1,8.054,5.575l.276.887-5.3,16.963A2.942,2.942,0,0,1,0,25.741v.34H5.52v-.34q-2.367,0-2.367-1.2a3.408,3.408,0,0,1,.182-.991L4.8,18.928h7.421l2.321,4.632a1.346,1.346,0,0,0,.111.23,4.609,4.609,0,0,0,4.006,2.3l2.268,0L23,26.081v-.34c-1.413,0-1.975-.039-2.434-.963" transform="translate(0 -2.098)" fill="#202b52"></path>
    <path d="M288.393,21.718a2.824,2.824,0,0,1-2.87,1.941,5.315,5.315,0,0,1-3.261-1.226V7.547a5.315,5.315,0,0,1,3.261-1.226,2.859,2.859,0,0,1,2.87,1.942q.391.954.391,6.745,0,5.62-.391,6.711M285.523,5.98A5.715,5.715,0,0,0,282.262,7.1V2.725q0-2.725-1.3-2.725h-6.522V.34q2.608,0,2.609,2.385v9.542h0v8.856a1.9,1.9,0,1,1-3.692,0V12.266q0-6.3-8.478-6.3a5.97,5.97,0,0,0-3.391,1.226,8.606,8.606,0,0,0-1.174,1.09q-2.054-2.316-7.174-2.316a5.971,5.971,0,0,0-3.391,1.226q-.066,0-.473-.528t-.7-.527h-6.521v.34q2.608,0,2.609,2.384V19.043a4.927,4.927,0,0,0,.794,2.044,6.306,6.306,0,0,0,5.331,2.768l1.7-.007v-.341q-2.608,0-2.608-2.384V8.86a12.3,12.3,0,0,0-.065-1.295,5.4,5.4,0,0,1,3.326-1.261q3.261,0,3.261,6.3v6.309a4.9,4.9,0,0,0,.766,2.1,6.3,6.3,0,0,0,5.376,2.839l1.684-.007v-.341q-2.609,0-2.608-2.384V12.266a5.958,5.958,0,0,0-1.076-3.679,4.944,4.944,0,0,1,1.011-1.022,5.4,5.4,0,0,1,3.326-1.261q3.26,0,3.261,6.3v6.124a5.024,5.024,0,0,0,.965,2.552,6.22,6.22,0,0,0,5.125,2.572l.973,0,.973,0a6.288,6.288,0,0,0,4.493-1.822,3.742,3.742,0,0,1,1.6.842A5.145,5.145,0,0,0,285.523,24a8.238,8.238,0,0,0,6.2-2.385A9.164,9.164,0,0,0,294,15.007,9.088,9.088,0,0,0,291.686,8.4a8.136,8.136,0,0,0-6.163-2.419" transform="translate(-174.005 0)" fill="#202b52"></path>
    <path d="M466.153,23.23q.717-1.737,3.2-1.738a3.4,3.4,0,0,1,3.424,2.078q.489,1.089.489,6.268h-7.826a20.426,20.426,0,0,1,.717-6.608M473.946,37.6a8.947,8.947,0,0,1-4.6,1.261,3.794,3.794,0,0,1-3.261-1.7q-.652-.954-.652-6.983h13.043A9.036,9.036,0,0,0,476.1,23.5a10.867,10.867,0,0,0-13.5,0,9.034,9.034,0,0,0-2.38,6.676,9.037,9.037,0,0,0,2.348,6.676q2.38,2.35,6.782,2.35a9.288,9.288,0,0,0,4.761-1.295,9.876,9.876,0,0,0,3.522-3.44l-.261-.171a9.774,9.774,0,0,1-3.424,3.3" transform="translate(-330.845 -15.206)" fill="#202b52"></path>
    <path d="M182.026,29.838a20.438,20.438,0,0,1,.717-6.608q.718-1.737,3.2-1.738a3.4,3.4,0,0,1,3.424,2.078q.489,1.089.489,6.268ZM192.688,23.5a10.867,10.867,0,0,0-13.5,0,9.033,9.033,0,0,0-2.381,6.676,9.036,9.036,0,0,0,2.348,6.676q2.38,2.35,6.782,2.35a9.288,9.288,0,0,0,4.761-1.295,9.874,9.874,0,0,0,3.521-3.44l-.261-.171a9.772,9.772,0,0,1-3.424,3.3,8.946,8.946,0,0,1-4.6,1.261,3.793,3.793,0,0,1-3.261-1.7q-.652-.954-.652-6.983h13.043a9.035,9.035,0,0,0-2.38-6.676" transform="translate(-127.105 -15.206)" fill="#202b52"></path>
    <path d="M82.619,29.343l-4.894-2.376A12.405,12.405,0,0,1,75.9,25.811a2.051,2.051,0,0,1-.751-1.734,2.4,2.4,0,0,1,.9-1.75,3.427,3.427,0,0,1,2.429-.834,6.793,6.793,0,0,1,2.935.588,4.283,4.283,0,0,1,1.81,1.456A6.353,6.353,0,0,1,84.307,26.3h.326l-.294-4.8h-.326q-.1.529-.954.528a5.075,5.075,0,0,1-1.9-.426,7.335,7.335,0,0,0-2.69-.443,8.784,8.784,0,0,0-5.266,1.43A4.589,4.589,0,0,0,71.2,26.534a4.39,4.39,0,0,0,.832,2.657,6.693,6.693,0,0,0,2.592,2.01l4.6,2.181a3.211,3.211,0,0,1,1.957,2.895q0,2.589-3.326,2.589v.34q7.826,0,7.826-5.416,0-2.736-3.058-4.446" transform="translate(-51.184 -15.206)" fill="#202b52"></path>
    <path d="M132.489,29.343,127.6,26.967a12.413,12.413,0,0,1-1.829-1.156,2.051,2.051,0,0,1-.751-1.734,2.4,2.4,0,0,1,.9-1.75,3.428,3.428,0,0,1,2.429-.834,6.793,6.793,0,0,1,2.935.588,4.282,4.282,0,0,1,1.81,1.456,6.351,6.351,0,0,1,1.093,2.759h.326l-.293-4.8h-.326q-.1.529-.954.528a5.074,5.074,0,0,1-1.9-.426,7.336,7.336,0,0,0-2.69-.443,8.784,8.784,0,0,0-5.266,1.43,4.589,4.589,0,0,0-2.005,3.952,4.39,4.39,0,0,0,.831,2.657,6.7,6.7,0,0,0,2.592,2.01l4.6,2.181a3.211,3.211,0,0,1,1.957,2.895q0,2.589-3.326,2.589v.34q7.826,0,7.826-5.416,0-2.736-3.057-4.446" transform="translate(-87.035 -15.206)" fill="#202b52"></path>
    <path d="M430.156,21.6V3.186q0-2.726-1.3-2.725H422.33V.8q2.608,0,2.609,2.385V19.258a4.81,4.81,0,0,0,1.035,2.526,6.625,6.625,0,0,0,5.322,2.547l1.468-.007v-.341q-2.609,0-2.609-2.384" transform="translate(-303.608 -0.331)" fill="#202b52"></path>
  </g>
</svg>
