<svg xmlns="http://www.w3.org/2000/svg" width="359.142" height="81.106" viewBox="0 0 359.142 81.106">
  <g id="Dynabuy-ClubsDAffaires_RVB_SurFondBlanc" transform="translate(179.571 40.553)">
    <g id="Groupe_34632" data-name="Groupe 34632" transform="translate(-179.571 -40.553)">
      <g id="Groupe_34628" data-name="Groupe 34628" transform="translate(190.736 6.609)">
        <path id="Tracé_472320" data-name="Tracé 472320" d="M1003.419,116.406l-.238,3.13a12,12,0,0,1-5.785,1.149,14.886,14.886,0,0,1-10.639-3.824q-4.062-3.824-4.022-10.639.039-6.855,4.081-10.659a14.81,14.81,0,0,1,10.58-3.8,15,15,0,0,1,7.014,1.625l-1.347,2.377a11.5,11.5,0,0,0-5.666-1.426q-5.429,0-8.42,3.289a12.282,12.282,0,0,0-2.992,8.6,12.279,12.279,0,0,0,2.992,8.6q2.991,3.29,8.42,3.289A12.6,12.6,0,0,0,1003.419,116.406Z" transform="translate(-982.735 -91.76)" fill="#2d132c"/>
        <path id="Tracé_472321" data-name="Tracé 472321" d="M1095.114,93.975h2.734v27.974h-2.734Z" transform="translate(-1070.983 -93.499)" fill="#2d132c"/>
        <path id="Tracé_472322" data-name="Tracé 472322" d="M1142.237,139.923V127.006h2.734v12.878a8.031,8.031,0,0,1-2.278,6.122,10.328,10.328,0,0,1-12.64,0,8.028,8.028,0,0,1-2.279-6.122V127.006h2.734v12.917a5.754,5.754,0,0,0,1.545,4.319,6.946,6.946,0,0,0,8.638,0A5.754,5.754,0,0,0,1142.237,139.923Z" transform="translate(-1096.63 -119.438)" fill="#2d132c"/>
        <path id="Tracé_472323" data-name="Tracé 472323" d="M1227.786,111.489V93.975h2.734v11.134a9.365,9.365,0,0,1,3.586-3.17,10.813,10.813,0,0,1,5.012-1.149,10.16,10.16,0,0,1,7.429,2.952,11.285,11.285,0,0,1-.119,15.434,10.574,10.574,0,0,1-7.707,3.051,10.832,10.832,0,0,1-7.924-2.952A10.41,10.41,0,0,1,1227.786,111.489Zm5.052-5.983a9.141,9.141,0,0,0,0,11.986,7.808,7.808,0,0,0,5.884,2.318,7.459,7.459,0,0,0,5.785-2.437,9.052,9.052,0,0,0,.04-11.828,7.585,7.585,0,0,0-5.825-2.338A7.844,7.844,0,0,0,1232.839,105.506Z" transform="translate(-1175.166 -93.499)" fill="#2d132c"/>
        <path id="Tracé_472324" data-name="Tracé 472324" d="M1336.261,145.526l1.149-2.338a12.113,12.113,0,0,0,5.547,1.545q4.041,0,4.042-3.337a3.363,3.363,0,0,0-.85-2.384,8.626,8.626,0,0,0-2.588-1.748l-2.426-1.13a14.819,14.819,0,0,1-3.784-2.358,4.5,4.5,0,0,1,.733-6.836,9.089,9.089,0,0,1,4.874-1.228,13.358,13.358,0,0,1,6.182,1.505l-1.189,2.338a9.556,9.556,0,0,0-4.992-1.426q-4.042,0-4.042,2.554a2.281,2.281,0,0,0,.235,1.058,2.627,2.627,0,0,0,.864.9,7.869,7.869,0,0,0,.983.611l1.314.636,2.414,1.169a12.165,12.165,0,0,1,3.874,2.623,5.281,5.281,0,0,1,1.212,3.647,5.153,5.153,0,0,1-1.942,4.3,7.709,7.709,0,0,1-4.913,1.526A14.961,14.961,0,0,1,1336.261,145.526Z" transform="translate(-1260.224 -118.423)" fill="#2d132c"/>
      </g>
      <g id="Groupe_34629" data-name="Groupe 34629" transform="translate(0 45.841)">
        <path id="Tracé_472325" data-name="Tracé 472325" d="M94.479,291.976V274.462h15.137q6.181,0,9.688,3.9a14.63,14.63,0,0,1,3.507,10.164,13.123,13.123,0,0,1-4.537,10.481,16.015,16.015,0,0,1-10.8,3.9,15.284,15.284,0,0,1-9.391-2.694Q94.479,297.523,94.479,291.976Zm6.578-12.165v11.531a5.192,5.192,0,0,0,1.743,4.18,6.967,6.967,0,0,0,4.676,1.486,7.406,7.406,0,0,0,5.845-2.5,8.852,8.852,0,0,0,2.2-6.062,9.273,9.273,0,0,0-2.081-6.142,6.963,6.963,0,0,0-5.646-2.5Z" transform="translate(-94.479 -274.462)" fill="#2d132c"/>
        <path id="Tracé_472326" data-name="Tracé 472326" d="M254.788,336.1H247.7a6.419,6.419,0,0,0,.5-.456q.3-.3,1.07-1.268a14.159,14.159,0,0,0,2.5-4.636,10.512,10.512,0,0,0,.575-3.15,6.941,6.941,0,0,1-5.9,2.615q-8.2,0-8.2-8.361v-12.8h6.062v10.936a6.824,6.824,0,0,0,.832,3.725,3.33,3.33,0,0,0,3.011,1.268q4.319,0,4.319-4.953V308.046h6.062v17.633a16.017,16.017,0,0,1-.931,5.448,13.657,13.657,0,0,1-1.882,3.784Z" transform="translate(-207.358 -300.834)" fill="#2d132c"/>
        <path id="Tracé_472327" data-name="Tracé 472327" d="M357.977,311.471q-4.082,0-4.081,4.874V327.36h-6.062V314.839q0-4.318,2.794-6.478a13.589,13.589,0,0,1,14.7,0q2.794,2.16,2.794,6.478V327.36h-6.063V316.345Q362.058,311.471,357.977,311.471Z" transform="translate(-293.43 -299.386)" fill="#2d132c"/>
        <path id="Tracé_472328" data-name="Tracé 472328" d="M476.972,317.573v9.787h-5.944v-2.576a9.162,9.162,0,0,1-7.093,2.893,10.712,10.712,0,0,1-7.707-2.893,10.081,10.081,0,0,1-3.031-7.647,10.314,10.314,0,0,1,3.269-7.865,12.022,12.022,0,0,1,8.579-3.071q5.547,0,8.737,3.091A11,11,0,0,1,476.972,317.573Zm-8.024,3.408a6.012,6.012,0,0,0,0-8,5.349,5.349,0,0,0-3.982-1.545,5.166,5.166,0,0,0-3.923,1.585,6.049,6.049,0,0,0-.02,7.964,5.216,5.216,0,0,0,3.942,1.545A5.349,5.349,0,0,0,468.948,320.981Z" transform="translate(-376.169 -299.386)" fill="#2d132c"/>
        <path id="Tracé_472329" data-name="Tracé 472329" d="M578.491,290.906V274.462h6.063v9.272a8.995,8.995,0,0,1,6.776-2.457,10.123,10.123,0,0,1,7.687,2.992,10.98,10.98,0,0,1,2.853,7.9,9.973,9.973,0,0,1-3.249,7.647,11.649,11.649,0,0,1-8.242,3.012q-5.587,0-8.737-3.15T578.491,290.906Zm7.628-2.853a6.012,6.012,0,0,0,0,8A5.347,5.347,0,0,0,590.1,297.6a5.165,5.165,0,0,0,3.923-1.585,6.049,6.049,0,0,0,.02-7.965,5.217,5.217,0,0,0-3.943-1.545A5.346,5.346,0,0,0,586.119,288.053Z" transform="translate(-474.559 -274.462)" fill="#2d132c"/>
        <path id="Tracé_472330" data-name="Tracé 472330" d="M708.392,323.975q4.081,0,4.081-4.874V308.046h6.063v12.561a7.659,7.659,0,0,1-2.774,6.439,13.656,13.656,0,0,1-14.74,0,7.656,7.656,0,0,1-2.774-6.439V308.046h6.062V319.1Q704.311,323.975,708.392,323.975Z" transform="translate(-568.6 -300.834)" fill="#2d132c"/>
        <path id="Tracé_472331" data-name="Tracé 472331" d="M824.419,336.1h-7.093a6.4,6.4,0,0,0,.5-.456q.3-.3,1.07-1.268a14.153,14.153,0,0,0,2.5-4.636,10.514,10.514,0,0,0,.575-3.15,6.942,6.942,0,0,1-5.9,2.615q-8.2,0-8.2-8.361v-12.8h6.063v10.936a6.825,6.825,0,0,0,.832,3.725,3.33,3.33,0,0,0,3.011,1.268q4.318,0,4.319-4.953V308.046h6.063v17.633a16.016,16.016,0,0,1-.931,5.448,13.66,13.66,0,0,1-1.882,3.784Z" transform="translate(-654.672 -300.834)" fill="#2d132c"/>
      </g>
      <g id="Groupe_34630" data-name="Groupe 34630" transform="translate(190.182 45.712)">
        <path id="Tracé_472332" data-name="Tracé 472332" d="M1001.909,274.787v17.355a11.059,11.059,0,0,1-18.643,7.885,10.283,10.283,0,0,1-3.11-7.727,10.4,10.4,0,0,1,2.992-7.747,10.159,10.159,0,0,1,7.43-2.952,10.816,10.816,0,0,1,5.012,1.149,9.37,9.37,0,0,1,3.586,3.17V274.787ZM996.857,298.3a9.142,9.142,0,0,0,0-11.986,7.846,7.846,0,0,0-5.884-2.3,7.582,7.582,0,0,0-5.825,2.338,9.079,9.079,0,0,0,.04,11.848,7.487,7.487,0,0,0,5.785,2.417A7.81,7.81,0,0,0,996.857,298.3Z" transform="translate(-980.155 -274.589)" fill="#2d132c"/>
        <path id="Tracé_472333" data-name="Tracé 472333" d="M1096.134,282.95l-1.942-1.7a4.176,4.176,0,0,0,1.109-2.893v-3.566h3.17V278a6.858,6.858,0,0,1-.436,2.675A6.98,6.98,0,0,1,1096.134,282.95Z" transform="translate(-1069.705 -274.589)" fill="#2d132c"/>
        <path id="Tracé_472334" data-name="Tracé 472334" d="M1137.168,294.956h-12.321l-3,7.806h-2.932l10.935-27.975h3.092l10.143,27.975h-3.21Zm-11.347-2.536h10.467l-4.97-14.314Z" transform="translate(-1089.121 -274.589)" fill="#2d132c"/>
        <path id="Tracé_472335" data-name="Tracé 472335" d="M1242.371,302.038H1239.6V279.531a5.281,5.281,0,0,1,1.684-4.18,6.55,6.55,0,0,1,4.5-1.486,8.754,8.754,0,0,1,1.585.139,9.1,9.1,0,0,1,1.11.258l.316.119-.713,2.377a4.949,4.949,0,0,0-2.18-.4q-3.566,0-3.566,3.328v1.466h5.27l-.436,2.417h-4.795Zm10.1,0H1249.7V279.531a5.281,5.281,0,0,1,1.684-4.18,6.55,6.55,0,0,1,4.5-1.486,8.748,8.748,0,0,1,1.585.139,7.14,7.14,0,0,1,1.07.258l.357.119-.713,2.377a4.946,4.946,0,0,0-2.179-.4q-3.566,0-3.566,3.328v1.466h5.27l-.436,2.417h-4.795Z" transform="translate(-1183.887 -273.865)" fill="#2d132c"/>
        <path id="Tracé_472336" data-name="Tracé 472336" d="M1342.358,317.264v10.421h-2.734v-4.042a9.37,9.37,0,0,1-3.586,3.17,10.813,10.813,0,0,1-5.012,1.149,10.155,10.155,0,0,1-7.429-2.952,11.284,11.284,0,0,1,.119-15.433,10.572,10.572,0,0,1,7.707-3.051,10.837,10.837,0,0,1,7.924,2.952A10.416,10.416,0,0,1,1342.358,317.264Zm-5.052,5.983a9.142,9.142,0,0,0,0-11.986,7.809,7.809,0,0,0-5.884-2.318,7.458,7.458,0,0,0-5.785,2.437,9.051,9.051,0,0,0-.04,11.828,7.579,7.579,0,0,0,5.825,2.338A7.844,7.844,0,0,0,1337.307,323.247Z" transform="translate(-1247.5 -299.513)" fill="#2d132c"/>
        <path id="Tracé_472337" data-name="Tracé 472337" d="M1441.837,274.787h2.734v3.051h-2.734Zm0,7.093h2.734v20.882h-2.734Z" transform="translate(-1342.7 -274.589)" fill="#2d132c"/>
        <path id="Tracé_472338" data-name="Tracé 472338" d="M1484.722,307.239l-.832,2.259a4.72,4.72,0,0,0-2.338-.515,3.726,3.726,0,0,0-3.368,1.446,8.074,8.074,0,0,0-.951,4.379v12.878H1474.5V314.57q0-4.477,1.843-6.261a7.072,7.072,0,0,1,5.131-1.783,7.468,7.468,0,0,1,1.6.178,6.578,6.578,0,0,1,1.249.376Z" transform="translate(-1368.348 -299.513)" fill="#2d132c"/>
        <path id="Tracé_472339" data-name="Tracé 472339" d="M1538.837,324.357l-.2,2.774a11.587,11.587,0,0,1-12.105-2.179,10.624,10.624,0,0,1-2.952-7.766,10.4,10.4,0,0,1,2.992-7.647,10.15,10.15,0,0,1,7.509-3.012,9.075,9.075,0,0,1,7.271,3.071,11.89,11.89,0,0,1,2.635,8.024h-17.634a7.892,7.892,0,0,0,2.358,5.9,8.217,8.217,0,0,0,5.726,2.021A8.121,8.121,0,0,0,1538.837,324.357Zm-4.755-15.414a7.342,7.342,0,0,0-4.894,1.684,8.012,8.012,0,0,0-2.635,4.577h14.5a7.22,7.22,0,0,0-2.219-4.636A6.881,6.881,0,0,0,1534.081,308.943Z" transform="translate(-1406.891 -299.513)" fill="#2d132c"/>
        <path id="Tracé_472340" data-name="Tracé 472340" d="M1624.861,326.338,1626.01,324a12.108,12.108,0,0,0,5.547,1.545q4.041,0,4.042-3.337a3.361,3.361,0,0,0-.85-2.384,8.616,8.616,0,0,0-2.588-1.748l-2.426-1.13a14.806,14.806,0,0,1-3.784-2.358,4.5,4.5,0,0,1,.733-6.835,9.084,9.084,0,0,1,4.874-1.228,13.356,13.356,0,0,1,6.182,1.506l-1.189,2.338a9.558,9.558,0,0,0-4.992-1.426q-4.042,0-4.042,2.554a2.28,2.28,0,0,0,.235,1.057,2.63,2.63,0,0,0,.864.9,7.911,7.911,0,0,0,.982.611l1.314.636,2.414,1.169a12.161,12.161,0,0,1,3.875,2.623,5.282,5.282,0,0,1,1.213,3.647,5.153,5.153,0,0,1-1.942,4.3,7.709,7.709,0,0,1-4.913,1.526A14.963,14.963,0,0,1,1624.861,326.338Z" transform="translate(-1486.299 -299.513)" fill="#2d132c"/>
      </g>
      <path id="Tracé_472341" data-name="Tracé 472341" d="M1716.656,362.483V355.8h5.776a4.716,4.716,0,0,1,3.7,1.489,5.583,5.583,0,0,1,1.338,3.878,5.006,5.006,0,0,1-1.732,4,6.109,6.109,0,0,1-4.12,1.489,5.831,5.831,0,0,1-3.583-1.028A3.67,3.67,0,0,1,1716.656,362.483Z" transform="translate(-1368.325 -292.493)" fill="#c72c41"/>
      <path id="Tracé_472342" data-name="Tracé 472342" d="M702.948,85.478q0-11.306-7.914-17.9t-19.471-6.6a28.062,28.062,0,0,0-19.221,6.972q-7.914,6.972-7.914,18.53,0,9.3,4.711,14.823t13.253,5.527h36.556Z" transform="translate(-529.478 -60.982)" fill="#ee4540"/>
      <g id="Groupe_34631" data-name="Groupe 34631" transform="translate(146.256 33.627)">
        <path id="Tracé_472343" data-name="Tracé 472343" d="M793.23,217.581v2.933a31.913,31.913,0,0,1-4.509,1.9,13.985,13.985,0,0,1-4.311.654,14.37,14.37,0,0,1-4.33-.644,29.086,29.086,0,0,1-4.489-1.893V217.6a18.117,18.117,0,0,0,4.152,1.576,18.935,18.935,0,0,0,4.667.585,18.64,18.64,0,0,0,4.667-.595A18.453,18.453,0,0,0,793.23,217.581Z" transform="translate(-775.591 -217.581)" fill="#fff"/>
      </g>
    </g>
  </g>
</svg>
