<?xml version="1.0" encoding="UTF-8"?> <svg xmlns="http://www.w3.org/2000/svg" width="168" height="40" viewBox="0 0 168 40" fill="none"><path d="M57.666 0.509003C58.6617 0.610001 59.6382 0.85176 60.566 1.22702C61.3923 1.5667 62.1371 2.07798 62.751 2.72702C63.3723 3.38926 63.8509 4.17211 64.157 5.02701C64.4969 6.02847 64.659 7.08168 64.636 8.13901C64.6381 8.83135 64.5779 9.52248 64.456 10.204C64.342 10.8506 64.1303 11.4761 63.828 12.059C63.5284 12.648 63.1342 13.1838 62.661 13.645C62.1281 14.1288 61.5202 14.5229 60.861 14.812C60.263 15.0701 59.6419 15.271 59.006 15.412C58.3162 15.5643 57.6159 15.6646 56.911 15.712C56.163 15.772 55.295 15.832 54.397 15.832C53.469 15.832 52.452 15.862 51.315 15.862L51.345 25.797L48.592 25.767L48.622 4.64001C48.6466 4.23774 48.5904 3.83461 48.4567 3.45438C48.3231 3.07414 48.1148 2.72451 47.844 2.42603C47.2005 1.85546 46.4318 1.44436 45.6 1.22601V0.359009H52.692C53.53 0.359009 54.192 0.359008 54.757 0.389008C55.296 0.389008 55.774 0.419006 56.134 0.419006C56.523 0.419006 56.822 0.449005 57.034 0.449005C57.243 0.483985 57.4542 0.504034 57.666 0.509003V0.509003ZM56.678 13.736C57.3681 13.7359 58.0506 13.5932 58.683 13.317C59.3089 13.0353 59.8694 12.6267 60.329 12.117C60.8177 11.5784 61.194 10.9478 61.436 10.262C61.718 9.49559 61.86 8.68468 61.855 7.86801C61.8746 7.05282 61.7427 6.24108 61.466 5.47403C61.22 4.81844 60.8317 4.22552 60.329 3.73801C59.8705 3.26416 59.3065 2.90541 58.683 2.69101C58.0426 2.44856 57.3628 2.32684 56.678 2.332H51.262V13.793H56.678V13.736Z" fill="#134294"></path><path d="M73.017 18.583V25.529H70.054V4.578C70.0701 4.12208 70.0092 3.66669 69.874 3.23099C69.7719 2.95313 69.6308 2.6912 69.455 2.453C69.3536 2.326 69.2437 2.20605 69.126 2.09399C68.9884 1.95998 68.838 1.83973 68.677 1.73499C68.4671 1.60745 68.247 1.49743 68.019 1.40601C67.6962 1.27837 67.3668 1.16853 67.032 1.077V0.328979H72.987V18.583H73.017Z" fill="#134294"></path><path d="M93.995 23.491V25.975H80.079V4.728C80.0951 4.27207 80.0342 3.81672 79.899 3.38101C79.8036 3.10018 79.6619 2.83723 79.48 2.603C79.3877 2.49561 79.2874 2.39533 79.18 2.30301C79.0585 2.172 78.9171 2.06096 78.761 1.974C78.5468 1.83506 78.3156 1.72446 78.073 1.64499C77.745 1.51092 77.4042 1.41042 77.056 1.345V0.47699L83.101 0.416992V23.549H93.994L93.995 23.491Z" fill="#134294"></path><path d="M111.921 23.491V25.975H98.005V4.728C98.021 4.27207 97.9602 3.81672 97.825 3.38101C97.7295 3.10019 97.5879 2.83724 97.406 2.603C97.3137 2.4956 97.2134 2.39533 97.106 2.30301C96.9845 2.172 96.8431 2.06096 96.687 1.974C96.4728 1.83506 96.2416 1.72446 95.999 1.64499C95.671 1.51092 95.3303 1.41042 94.982 1.345V0.47699L101.027 0.416992V23.549H111.92L111.921 23.491Z" fill="#134294"></path><path d="M119.491 18.583V25.529H116.528V4.578C116.544 4.12208 116.483 3.66669 116.348 3.23099C116.246 2.95314 116.105 2.69122 115.929 2.453C115.828 2.32603 115.718 2.20608 115.6 2.09399C115.462 1.95997 115.312 1.83972 115.151 1.73499C114.941 1.60745 114.721 1.49743 114.493 1.40601C114.17 1.27834 113.84 1.1685 113.505 1.077V0.328979H119.46V18.583H119.491Z" fill="#134294"></path><path d="M136.578 2.55709e-05C137.742 -0.00872473 138.901 0.152619 140.019 0.478999C141.112 0.776101 142.159 1.22053 143.132 1.80001C144.092 2.36449 144.977 3.04826 145.765 3.83502C146.55 4.62502 147.233 5.50946 147.8 6.46801C148.366 7.44702 148.808 8.4923 149.117 9.58001C149.429 10.7109 149.59 11.878 149.596 13.051C149.605 14.2251 149.443 15.3942 149.117 16.522C148.821 17.6142 148.378 18.6612 147.8 19.634C147.242 20.5888 146.558 21.4634 145.765 22.234C144.968 23.0007 144.084 23.6719 143.132 24.234C142.158 24.8024 141.111 25.2354 140.02 25.521C138.898 25.8229 137.741 25.9739 136.579 25.97C135.398 25.9738 134.221 25.8228 133.079 25.521C131.991 25.2278 130.945 24.7952 129.967 24.234C129.015 23.6718 128.131 23.0007 127.334 22.234C126.541 21.4634 125.857 20.5888 125.299 19.634C124.721 18.6612 124.278 17.6142 123.982 16.522C123.67 15.3911 123.509 14.2241 123.503 13.051C123.494 11.877 123.656 10.7078 123.982 9.58001C124.278 8.48778 124.721 7.44086 125.299 6.46801C125.873 5.51465 126.556 4.63109 127.334 3.83502C128.123 3.05041 129.007 2.36685 129.965 1.80001C130.938 1.22199 131.985 0.778944 133.077 0.483027C134.214 0.153245 135.394 -0.00945709 136.578 2.55709e-05V2.55709e-05ZM136.548 23.431C139.322 23.4204 141.979 22.3124 143.939 20.349C144.893 19.3961 145.655 18.2682 146.183 17.027C146.75 15.7562 147.035 14.3783 147.021 12.987C147.035 11.5861 146.75 10.1983 146.183 8.91702C145.641 7.67467 144.881 6.53943 143.939 5.56503C142.979 4.61112 141.854 3.84047 140.617 3.29101C139.326 2.73812 137.936 2.45306 136.532 2.45306C135.128 2.45306 133.738 2.73812 132.447 3.29101C129.938 4.38247 127.946 6.39682 126.881 8.91702C126.317 10.1992 126.032 11.5864 126.043 12.987C126.029 14.3783 126.314 15.7562 126.881 17.027C127.431 18.2562 128.19 19.3803 129.125 20.349C130.078 21.3033 131.206 22.0652 132.447 22.593C133.739 23.1599 135.137 23.4455 136.548 23.431Z" fill="#134294"></path><path d="M167.97 2.87305H160.608V25.7661H157.616V2.87305H150.434V0.389038H168V2.87305H167.97Z" fill="#134294"></path><path d="M69.995 39.861L73.287 32.17H74.125L77.417 39.861H76.579L75.472 37.261H71.881L70.774 39.861H69.995ZM72.209 36.569H75.201L73.735 33.038L72.209 36.569Z" fill="#134294"></path><path d="M79.242 37.706H80.05C80.0485 37.9147 80.0886 38.1216 80.1678 38.3147C80.2469 38.5078 80.3637 38.6832 80.5113 38.8308C80.6588 38.9783 80.8343 39.0951 81.0274 39.1743C81.2204 39.2535 81.4273 39.2935 81.636 39.292C82.0433 39.2914 82.4342 39.1313 82.725 38.8461C83.0157 38.5609 83.1834 38.1733 83.192 37.766C83.1867 37.5566 83.1389 37.3505 83.0514 37.1602C82.9639 36.9699 82.8385 36.7994 82.683 36.659C82.3317 36.392 81.9192 36.217 81.483 36.15C80.9508 36.0742 80.4519 35.8457 80.047 35.4921C79.8697 35.3102 79.7306 35.0947 79.638 34.8581C79.5455 34.6216 79.5012 34.3689 79.508 34.115C79.5323 33.5614 79.7703 33.0387 80.172 32.6569C80.5737 32.2751 81.1078 32.0639 81.662 32.0678C82.2162 32.0717 82.7472 32.2903 83.1435 32.6777C83.5398 33.0651 83.7705 33.5911 83.787 34.145H82.979C82.9799 33.9601 82.9442 33.7768 82.8739 33.6058C82.8036 33.4347 82.7 33.2793 82.5693 33.1484C82.4386 33.0176 82.2832 32.914 82.1122 32.8436C81.9412 32.7731 81.758 32.7373 81.573 32.7381C81.3975 32.7379 81.2236 32.7728 81.0618 32.8408C80.9 32.9088 80.7534 33.0085 80.6307 33.134C80.5079 33.2595 80.4116 33.4084 80.3472 33.5717C80.2829 33.735 80.2519 33.9095 80.256 34.085C80.256 34.803 80.615 35.1321 81.756 35.4621C82.714 35.7311 82.833 35.7621 83.192 36.0621C83.4365 36.2674 83.6329 36.5239 83.7673 36.8136C83.9018 37.1032 83.971 37.4188 83.97 37.7381C83.9358 38.3444 83.6699 38.9144 83.2272 39.3302C82.7846 39.746 82.199 39.9757 81.5917 39.9718C80.9844 39.968 80.4018 39.7308 79.9645 39.3095C79.5271 38.8881 79.2685 38.3148 79.242 37.7081V37.706Z" fill="#134294"></path><path d="M86.125 37.706H86.933C86.9315 37.9147 86.9716 38.1216 87.0508 38.3147C87.1299 38.5078 87.2467 38.6832 87.3943 38.8308C87.5418 38.9783 87.7173 39.0951 87.9104 39.1743C88.1034 39.2535 88.3103 39.2935 88.519 39.292C88.9263 39.2914 89.3172 39.1313 89.608 38.8461C89.8987 38.5609 90.0664 38.1733 90.075 37.766C90.0697 37.5566 90.0219 37.3505 89.9344 37.1602C89.8469 36.9699 89.7215 36.7994 89.566 36.659C89.2147 36.392 88.8022 36.217 88.366 36.15C87.8338 36.0742 87.3349 35.8457 86.93 35.4921C86.7527 35.3102 86.6136 35.0947 86.521 34.8581C86.4285 34.6216 86.3842 34.3689 86.391 34.115C86.4153 33.5614 86.6533 33.0387 87.055 32.6569C87.4567 32.2751 87.9908 32.0639 88.545 32.0678C89.0992 32.0717 89.6302 32.2903 90.0265 32.6777C90.4228 33.0651 90.6535 33.5911 90.67 34.145H89.862C89.8629 33.9601 89.8272 33.7768 89.7569 33.6058C89.6866 33.4347 89.583 33.2793 89.4523 33.1484C89.3216 33.0176 89.1662 32.914 88.9952 32.8436C88.8242 32.7731 88.641 32.7373 88.456 32.7381C88.2805 32.7379 88.1066 32.7728 87.9448 32.8408C87.783 32.9088 87.6364 33.0085 87.5137 33.134C87.3909 33.2595 87.2946 33.4084 87.2302 33.5717C87.1659 33.735 87.1349 33.9095 87.139 34.085C87.139 34.803 87.498 35.1321 88.639 35.4621C89.597 35.7311 89.716 35.7621 90.075 36.0621C90.3195 36.2674 90.5159 36.5239 90.6503 36.8136C90.7848 37.1032 90.854 37.4188 90.853 37.7381C90.8188 38.3444 90.5529 38.9144 90.1102 39.3302C89.6676 39.746 89.082 39.9757 88.4747 39.9718C87.8674 39.968 87.2848 39.7308 86.8475 39.3095C86.4101 38.8881 86.1515 38.3148 86.125 37.7081V37.706Z" fill="#134294"></path><path d="M93.576 32.17H94.354V36.958C94.354 38.394 95.042 39.232 96.209 39.232C97.376 39.232 98.064 38.394 98.064 36.958V32.17H98.812V36.958C98.8604 37.6908 98.6599 38.4185 98.243 39.023C97.9921 39.3229 97.6785 39.564 97.3243 39.7295C96.9701 39.8949 96.584 39.9807 96.193 39.9807C95.8021 39.9807 95.4159 39.8949 95.0617 39.7295C94.7075 39.564 94.3939 39.3229 94.143 39.023C93.7261 38.4185 93.5256 37.6908 93.574 36.958L93.576 32.17Z" fill="#134294"></path><path d="M101.985 39.861V32.17H103.93C104.583 32.1289 105.236 32.2312 105.845 32.47C106.263 32.6671 106.616 32.9809 106.86 33.3737C107.105 33.7665 107.23 34.2215 107.222 34.684C107.225 35.2935 106.988 35.8797 106.563 36.3163C106.137 36.7529 105.557 37.0049 104.948 37.018L107.103 39.891H106.115L103.515 36.42H103.815C104.407 36.485 105.006 36.3922 105.551 36.151C105.815 36.0086 106.036 35.7969 106.189 35.5386C106.342 35.2803 106.421 34.9852 106.419 34.685C106.421 34.3885 106.344 34.0968 106.197 33.8394C106.05 33.582 105.837 33.368 105.581 33.219C105.117 32.9852 104.599 32.8815 104.081 32.919H102.734V39.919H101.985V39.861Z" fill="#134294"></path><path d="M109.287 39.861L112.579 32.17H113.417L116.709 39.861H115.871L114.764 37.261H111.173L110.066 39.861H109.287ZM111.501 36.569H114.494L113.028 33.038L111.501 36.569Z" fill="#134294"></path><path d="M119.192 39.861V32.17H120.239L124.548 38.544V32.17H125.326V39.861H124.548L119.969 33.098V39.861H119.192Z" fill="#134294"></path><path d="M134.81 37.825H135.648C135.259 38.5593 134.648 39.1522 133.903 39.5197C133.157 39.8871 132.315 40.0104 131.496 39.8719C130.676 39.7334 129.921 39.3403 129.338 38.7483C128.755 38.1564 128.373 37.3957 128.246 36.5743C128.12 35.7529 128.256 34.9126 128.634 34.1727C129.013 33.4328 129.615 32.831 130.354 32.4526C131.094 32.0743 131.935 31.9388 132.756 32.0652C133.577 32.1917 134.338 32.5737 134.93 33.157C135.246 33.4113 135.493 33.7407 135.648 34.115H134.78C134.483 33.6824 134.086 33.3284 133.622 33.0835C133.158 32.8386 132.642 32.7101 132.117 32.709C131.248 32.709 130.414 33.0543 129.8 33.6688C129.185 34.2834 128.84 35.1169 128.84 35.986C128.84 36.8551 129.185 37.6887 129.8 38.3032C130.414 38.9178 131.248 39.263 132.117 39.263C132.91 39.2383 133.671 38.9425 134.272 38.425C134.479 38.252 134.661 38.0499 134.81 37.825V37.825Z" fill="#134294"></path><path d="M138.374 39.861V32.17H142.593V32.858H139.152V35.611H142.474V36.299H139.152V39.142H142.593V39.83H138.374V39.861Z" fill="#134294"></path><path d="M144.838 37.706H145.646C145.645 37.9147 145.685 38.1216 145.764 38.3147C145.843 38.5078 145.96 38.6832 146.107 38.8308C146.255 38.9783 146.43 39.0951 146.623 39.1743C146.816 39.2535 147.023 39.2935 147.232 39.292C147.639 39.2914 148.03 39.1313 148.321 38.8461C148.612 38.5609 148.779 38.1733 148.788 37.766C148.783 37.5566 148.735 37.3505 148.647 37.1602C148.56 36.9699 148.435 36.7994 148.279 36.659C147.928 36.392 147.515 36.217 147.079 36.15C146.547 36.0743 146.048 35.8457 145.643 35.4921C145.466 35.3102 145.327 35.0947 145.234 34.8581C145.141 34.6216 145.097 34.3689 145.104 34.115C145.128 33.5614 145.366 33.0387 145.768 32.6569C146.17 32.2751 146.704 32.0639 147.258 32.0678C147.812 32.0717 148.343 32.2903 148.74 32.6777C149.136 33.0651 149.367 33.5911 149.383 34.145H148.605C148.606 33.9601 148.57 33.7768 148.5 33.6058C148.43 33.4347 148.326 33.2793 148.195 33.1484C148.065 33.0176 147.909 32.914 147.738 32.8436C147.567 32.7731 147.384 32.7373 147.199 32.7381C147.023 32.7379 146.85 32.7728 146.688 32.8408C146.526 32.9088 146.379 33.0085 146.257 33.134C146.134 33.2595 146.038 33.4084 145.973 33.5717C145.909 33.735 145.878 33.9095 145.882 34.085C145.882 34.803 146.241 35.1321 147.382 35.4621C148.34 35.7311 148.459 35.7621 148.818 36.0621C149.063 36.2674 149.259 36.5239 149.393 36.8136C149.528 37.1032 149.597 37.4188 149.596 37.7381C149.562 38.3483 149.294 38.922 148.849 39.3405C148.403 39.759 147.814 39.9903 147.203 39.9864C146.592 39.9826 146.005 39.7439 145.565 39.3198C145.125 38.8958 144.865 38.3187 144.838 37.7081V37.706Z" fill="#134294"></path><path d="M33.91 39.771L34.06 39.711L34 38.155L33.731 38.185C33.1194 38.2803 32.4939 38.2289 31.906 38.035C31.4252 37.8178 31.0491 37.4202 30.859 36.928L29.213 33.068L29.093 32.829L20.02 11.791L18.314 15.741L23.222 27.502H13.197L11.91 30.491H24.51L28.49 39.798H33.697L33.906 39.768L33.816 39.529L33.91 39.771Z" fill="#E20613"></path><path d="M28.908 7.68896C28.4442 6.35521 27.703 5.13491 26.7333 4.10846C25.7635 3.08201 24.5873 2.27273 23.282 1.73398C21.8439 1.12778 20.3185 0.754122 18.763 0.626984V0.626984C18.4637 0.596984 18.1343 0.566987 17.775 0.536987C17.416 0.506987 16.937 0.47699 16.369 0.47699C15.801 0.47699 15.082 0.446992 14.244 0.416992C13.406 0.386992 12.389 0.386963 11.072 0.386963H0V2.15298L0.18 2.21298C1.41306 2.52639 2.55252 3.13212 3.502 3.97897C3.90076 4.40592 4.20747 4.91032 4.40307 5.46082C4.59867 6.01131 4.67897 6.59615 4.639 7.17899L4.57899 39.768L9.307 39.828L9.247 24.596C10.863 24.596 12.389 24.596 13.736 24.566C15.142 24.536 16.429 24.476 17.626 24.386C18.7209 24.2834 19.8098 24.1235 20.888 23.907C21.885 23.7021 22.8572 23.3909 23.788 22.979C25.8075 22.1444 27.4628 20.6164 28.456 18.67C28.9366 17.7473 29.2792 16.7591 29.473 15.737C29.6822 14.6726 29.7827 13.5897 29.773 12.505C29.706 10.8677 29.4149 9.24726 28.908 7.68896V7.68896ZM24.868 12.089C24.8759 13.3116 24.6729 14.5264 24.268 15.68C23.9008 16.7036 23.3422 17.6481 22.622 18.463C21.9422 19.2101 21.1175 19.8109 20.198 20.229C19.2669 20.6485 18.2563 20.8627 17.235 20.857H9.215V3.82999H17.235C18.2476 3.82365 19.2525 4.00645 20.198 4.36899C21.1417 4.71599 21.9978 5.26558 22.7062 5.97913C23.4145 6.69267 23.9579 7.55279 24.298 8.49896C24.7165 9.64798 24.9101 10.8668 24.868 12.089Z" fill="#134294"></path></svg> 